<?xml version="1.0" encoding="utf-8"?>
<!-- Generator: Adobe Illustrator 26.1.0, SVG Export Plug-In . SVG Version: 6.00 Build 0)  -->
<svg version="1.1" id="Layer_1" xmlns="http://www.w3.org/2000/svg" xmlns:xlink="http://www.w3.org/1999/xlink" x="0px" y="0px"
	 viewBox="0 0 1000 1000" style="enable-background:new 0 0 1000 1000;" xml:space="preserve">
<style type="text/css">
	.st0{fill:#001235;}
	.st1{fill:#EF9018;}
	.st2{fill:url(#SVGID_1_);}
	.st3{opacity:0.7;fill:#EF9018;}
	.st4{opacity:0.4;fill:#EF9018;}
	.st5{fill:url(#SVGID_00000049203563488023574890000002668215845045975698_);}
	.st6{fill:url(#SVGID_00000093873109998839689690000012324549407517870756_);}
	.st7{fill:url(#SVGID_00000102529431295212762680000008373529123590526854_);}
	.st8{fill:url(#SVGID_00000008837328513917312390000002747366914690391705_);}
	.st9{fill:url(#SVGID_00000082350550918643582240000010829567567294939576_);}
	.st10{fill:url(#SVGID_00000057120874704926347430000013136853958416295087_);}
	.st11{fill:url(#SVGID_00000170271694411967206450000001524647582837580988_);}
	.st12{fill:#FFFFFF;}
	.st13{fill:url(#SVGID_00000127728172039615881320000009404172265670899642_);}
	.st14{fill:url(#SVGID_00000115481815744707078420000013631440190854394283_);}
	.st15{fill:url(#SVGID_00000016053978862783544740000011841218686288586376_);}
	.st16{fill:url(#SVGID_00000080205705077548277620000004251007619533416126_);}
	.st17{fill:url(#SVGID_00000028306944175774861130000015187946568760947073_);}
	.st18{fill:url(#SVGID_00000036225208015329716290000000050980988636140177_);}
	.st19{fill:url(#SVGID_00000027583170947490718540000007289049664215406226_);}
	.st20{fill:url(#SVGID_00000031893334869738540300000005892103864622640029_);}
	.st21{fill:url(#SVGID_00000095326607912715036160000010211386631463454906_);}
	.st22{fill:url(#SVGID_00000023241320094753716810000014070952143608071050_);}
	.st23{fill:url(#SVGID_00000040560200145646130910000017409607273132134044_);}
	.st24{fill:url(#SVGID_00000018946195749277892300000009206671571497646013_);}
	.st25{fill:url(#SVGID_00000037655552009765724120000000713885662947215272_);}
	.st26{fill:#225470;}
	.st27{fill:url(#SVGID_00000107570789950267510080000010577610379675095947_);}
	.st28{fill:url(#SVGID_00000055701268455459449270000009860995496915574661_);}
	.st29{fill:url(#SVGID_00000134230615479132255030000013773944103224469928_);}
	.st30{fill:url(#SVGID_00000113315167027035556280000000973453540599645850_);}
	.st31{fill:url(#SVGID_00000032632783329064263870000016784350982447835030_);}
	.st32{fill:url(#SVGID_00000098926828979428208950000012639653192269465523_);}
	.st33{fill:url(#SVGID_00000008122798449031105120000001725962164258876820_);}
	.st34{fill:url(#SVGID_00000168832862234074693780000017710915301836158104_);}
	.st35{fill:url(#SVGID_00000100366906817859264010000009803131587036655542_);}
	.st36{fill:url(#SVGID_00000168804944420382445220000018326566048481305790_);}
	.st37{fill:url(#SVGID_00000146465557881209083510000007756170416332278948_);}
	.st38{fill:url(#SVGID_00000086683864653632474070000015127098566075978142_);}
	.st39{fill:url(#SVGID_00000150080290827645118110000001601261157988783776_);}
</style>
<rect x="-5" y="-5" class="st0" width="1010" height="1010"/>
<g>
	<g>
		<path class="st1" d="M567.48,331.07h-253.8v277.73l134.96-126.56l-81.72,30.81V384.31h200.56c18.15,0,32.91,14.76,32.91,32.91
			c0,7.53-1.56,13.66-6.85,20.02l-61.66,66.13h35.6c47.5,0,86.15-38.64,86.15-86.15S614.98,331.07,567.48,331.07z"/>
		<radialGradient id="SVGID_1_" cx="451.3139" cy="500.7217" r="132.8956" gradientUnits="userSpaceOnUse">
			<stop  offset="0" style="stop-color:#A70000"/>
			<stop  offset="1" style="stop-color:#EF9018;stop-opacity:0"/>
		</radialGradient>
		<polygon class="st2" points="366.91,513.05 366.91,405.8 313.68,394.52 313.68,608.81 448.63,482.25 		"/>
		<path class="st1" d="M582.64,450.28l-50.77,53.09h45.06c30.97,0,56.16,25.19,56.16,56.16c0,30.97-25.19,56.16-56.16,56.16h-80.12
			v53.24h80.12c60.32,0,109.4-49.08,109.4-109.4C686.33,501.12,640.32,453.26,582.64,450.28z"/>
		<path class="st1" d="M551.1,413.54c-7.99-1.13-16.02-1.41-24.08-1.11c-23.55,0.88-45.79,6.4-66.44,17.44
			c-5.9,3.15-11.72,6.46-16.67,10.98c-0.25,0.23-0.87,0.25-1.26,0.16c-4.2-1-8.43-1.76-12.77-1.81c-4.53-0.04-8.89,0.62-12.6,3.36
			c-1.72,1.27-3.43,2.57-5.01,4c-8.08,7.35-13.91,16.21-18.45,25.9c-0.1,0.22-0.15,0.45-0.26,0.77c10.17,0.44,20.21,0.88,30.35,1.33
			c-0.61,3.12-1.2,6.06-1.74,9.02c-0.07,0.4-0.02,0.94,0.21,1.26c4.54,6.44,9.11,12.86,13.7,19.26c0.23,0.33,0.72,0.58,1.14,0.67
			c2.09,0.43,4.2,0.79,6.3,1.17c0.99,0.18,1.98,0.36,3.1,0.56c-3.28,9.29-6.5,18.44-9.77,27.71c0.5,0,0.83,0.03,1.16,0
			c2.3-0.19,4.61-0.31,6.89-0.59c10.08-1.23,19.76-3.67,28.69-8.53c4-2.18,6.85-5.23,8.7-9.25c2.05-4.47,2.99-9.2,3.7-14
			c0.05-0.35,0.3-0.85,0.59-0.98c4.7-2.07,8.83-4.98,12.89-7.99c13.89-10.28,25.34-22.67,34.53-37c7.52-11.73,13.31-24.2,17.12-37.5
			c0.43-1.5,0.78-3.02,1.18-4.6C551.81,413.67,551.46,413.6,551.1,413.54z M507.93,452.93c-1.34,6.37-7.72,10.32-14.51,8.97
			c-6.29-1.25-10.44-7.5-9.12-13.7c1.33-6.21,7.68-10.24,14.14-8.97C505.07,440.54,509.26,446.59,507.93,452.93z"/>
		<g>
			<g>
				<polygon class="st1" points="467.26,668.93 517.91,668.93 517.91,516.26 467.26,561.59 				"/>
				<polygon class="st3" points="396.8,621.46 396.8,668.93 447.45,668.93 447.45,576.13 				"/>
				<polygon class="st4" points="336.48,668.93 377,668.93 377,632.67 				"/>
			</g>
		</g>
		
			<radialGradient id="SVGID_00000100341131464915993470000001132912548723920831_" cx="511.0238" cy="664.1849" r="163.6567" gradientUnits="userSpaceOnUse">
			<stop  offset="0" style="stop-color:#A70000"/>
			<stop  offset="1" style="stop-color:#EF9018;stop-opacity:0"/>
		</radialGradient>
		<path style="fill:url(#SVGID_00000100341131464915993470000001132912548723920831_);" d="M467.26,561.59v104.75
			c0-53.74,50.65-50.65,50.65-50.65v-99.43L467.26,561.59z"/>
		
			<radialGradient id="SVGID_00000065046970853873689370000008350564404712463235_" cx="672.6055" cy="320.2936" r="224.3868" gradientUnits="userSpaceOnUse">
			<stop  offset="0" style="stop-color:#A70000"/>
			<stop  offset="1" style="stop-color:#EF9018;stop-opacity:0"/>
		</radialGradient>
		<path style="fill:url(#SVGID_00000065046970853873689370000008350564404712463235_);" d="M594.48,436.08
			c4.55-5.98,5.91-11.86,5.91-18.95c-0.03-18.12-14.79-32.82-32.91-32.82H366.93v65.98h-53.26V331.08h244.59
			c9.35,0,18.7,2,26.93,6.49C626.15,359.86,610.15,416.84,594.48,436.08z"/>
	</g>
	
		<radialGradient id="SVGID_00000115487212733462604380000007630070452587576963_" cx="687.3269" cy="469.3917" r="198.2287" gradientUnits="userSpaceOnUse">
		<stop  offset="0" style="stop-color:#A70000"/>
		<stop  offset="1" style="stop-color:#EF9018;stop-opacity:0"/>
	</radialGradient>
	<path style="fill:url(#SVGID_00000115487212733462604380000007630070452587576963_);" d="M576.94,503.37
		c30.97,0,56.16,25.19,56.16,56.16c0,30.97-25.19,56.16-56.16,56.16h-80.12v53.24h80.12c50.94,0,93.85-34.99,105.97-82.2
		C690.85,499.15,576.94,503.37,576.94,503.37z"/>
</g>
</svg>
