<?xml version="1.0" encoding="utf-8"?>
<!-- Generator: Adobe Illustrator 26.1.0, SVG Export Plug-In . SVG Version: 6.00 Build 0)  -->
<svg version="1.1" id="Layer_1" xmlns="http://www.w3.org/2000/svg" xmlns:xlink="http://www.w3.org/1999/xlink" x="0px" y="0px"
	 viewBox="0 0 1000 1000" style="enable-background:new 0 0 1000 1000;" xml:space="preserve">
<style type="text/css">
	.st0{fill:#001235;}
	.st1{fill:#EF9018;}
	.st2{fill:url(#SVGID_1_);}
	.st3{opacity:0.7;fill:#EF9018;}
	.st4{opacity:0.4;fill:#EF9018;}
	.st5{fill:url(#SVGID_00000106111836705015698890000006292914797941676428_);}
	.st6{fill:url(#SVGID_00000163756178266241370210000000664962697920089756_);}
	.st7{fill:url(#SVGID_00000050640996846159104890000012991464003429365898_);}
	.st8{fill:url(#SVGID_00000098938688253719258740000009199602356156243858_);}
	.st9{fill:url(#SVGID_00000102530141302174093280000002089508481966358162_);}
	.st10{fill:url(#SVGID_00000155113619789241501910000008558313393949033859_);}
	.st11{fill:url(#SVGID_00000050657580436583500520000013611568675010131587_);}
	.st12{fill:#FFFFFF;}
	.st13{fill:url(#SVGID_00000056412864933087108860000004032874373849566873_);}
	.st14{fill:url(#SVGID_00000075866379359165531460000004462934057212671375_);}
	.st15{fill:url(#SVGID_00000080193956963335756920000013598730683337644976_);}
	.st16{fill:url(#SVGID_00000031172594294674017110000015387932616275863202_);}
	.st17{fill:url(#SVGID_00000031914623261122292890000017427839654030946443_);}
	.st18{fill:url(#SVGID_00000170959270600788297180000016318611812606125707_);}
	.st19{fill:url(#SVGID_00000014596332131884429340000006665899473801635209_);}
	.st20{fill:url(#SVGID_00000075121588001595755640000006681628519003462836_);}
	.st21{fill:url(#SVGID_00000071554661275199974650000007617792929511585923_);}
	.st22{fill:url(#SVGID_00000080188898769657112910000000134630103370983588_);}
	.st23{fill:url(#SVGID_00000163072163896896986480000008793435529167924637_);}
	.st24{fill:url(#SVGID_00000016044893738813291500000000082117609600309915_);}
	.st25{fill:url(#SVGID_00000078740778045243724420000015817753304098411944_);}
	.st26{fill:#225470;}
	.st27{fill:url(#SVGID_00000086684370537132421220000014839365437232626087_);}
	.st28{fill:url(#SVGID_00000020362112739099116200000016962481562100452746_);}
	.st29{fill:url(#SVGID_00000049912535557871266420000001577016246447506364_);}
	.st30{fill:url(#SVGID_00000156570169480581192230000014846430900724103086_);}
	.st31{fill:url(#SVGID_00000011744018712346107040000003915962941010015366_);}
	.st32{fill:url(#SVGID_00000090265231054931471470000003274856623437269693_);}
	.st33{fill:url(#SVGID_00000059275924730297065320000000954179398287756206_);}
	.st34{fill:url(#SVGID_00000112607431921486749450000011773909932486727598_);}
	.st35{fill:url(#SVGID_00000173152848934816677060000016582654026720442244_);}
	.st36{fill:url(#SVGID_00000100343915803178585580000015578686853953522852_);}
	.st37{fill:url(#SVGID_00000160879662574149096560000011522914251407014577_);}
	.st38{fill:url(#SVGID_00000145778800033481742290000003356778267496797334_);}
	.st39{fill:url(#SVGID_00000000935680893510760900000016468152212835633027_);}
</style>
<rect x="-5" y="-5" class="st0" width="1010" height="1010"/>
<g>
	<g>
		<g>
			<g>
				<path class="st12" d="M420.13,554.28c-6.97,6.92-15.47,10.38-25.5,10.38c-10.04,0-18.52-3.46-25.44-10.38
					c-6.92-6.92-10.38-15.4-10.38-25.44c0-10.04,3.46-18.52,10.38-25.44c6.92-6.92,15.4-10.38,25.44-10.38
					c10.04,0,18.54,3.46,25.5,10.38c6.96,6.92,10.45,15.4,10.45,25.44C430.58,538.88,427.09,547.36,420.13,554.28z M381.53,542.28
					c3.48,3.53,7.85,5.29,13.09,5.29c5.24,0,9.63-1.76,13.16-5.29c3.53-3.53,5.29-8,5.29-13.43c0-5.43-1.76-9.9-5.29-13.43
					c-3.53-3.53-7.91-5.29-13.16-5.29c-5.25,0-9.61,1.76-13.09,5.29c-3.48,3.53-5.22,8-5.22,13.43
					C376.31,534.27,378.05,538.75,381.53,542.28z"/>
			</g>
			<g>
				<path class="st12" d="M538.15,514.2c0,1.81,1.2,3.28,3.6,4.41c2.39,1.13,5.31,2.12,8.75,2.99c3.44,0.86,6.87,1.95,10.31,3.26
					c3.43,1.31,6.35,3.5,8.75,6.58c2.4,3.08,3.6,6.92,3.6,11.53c0,6.96-2.6,12.32-7.8,16.08c-5.2,3.75-11.69,5.63-19.47,5.63
					c-13.93,0-23.43-5.38-28.49-16.14l15.19-8.55c1.99,5.88,6.42,8.82,13.3,8.82c6.24,0,9.36-1.95,9.36-5.83
					c0-1.81-1.2-3.28-3.6-4.41c-2.4-1.13-5.31-2.15-8.75-3.05c-3.44-0.9-6.87-2.03-10.31-3.39c-3.44-1.36-6.36-3.5-8.75-6.44
					c-2.4-2.94-3.6-6.62-3.6-11.05c0-6.69,2.46-11.96,7.39-15.8c4.93-3.84,11.06-5.77,18.39-5.77c5.52,0,10.53,1.24,15.05,3.73
					c4.52,2.49,8.09,6.04,10.72,10.65l-14.92,8.14c-2.17-4.61-5.79-6.92-10.85-6.92c-2.26,0-4.14,0.5-5.63,1.49
					C538.9,511.12,538.15,512.48,538.15,514.2z"/>
			</g>
			<g>
				<path class="st12" d="M599.77,511.75v28.21c0,2.36,0.58,4.08,1.75,5.16c1.18,1.08,2.9,1.69,5.16,1.83
					c2.25,0.13,5.06,0.12,8.41-0.06v15.87c-12.03,1.35-20.51,0.22-25.44-3.4c-4.93-3.62-7.39-10.08-7.39-19.4v-58.74l17.5-5.28
					v18.99h15.32v1.5C615.09,504.89,608.23,511.75,599.77,511.75z"/>
			</g>
			<path class="st12" d="M742.83,493.81h-9.24c-23.07,0-34.93,11.08-35.45,33.37v35.58h17.6v-35.84c0-10.04,4.82-15.12,14.47-15.12
				h3.69C734.51,504.58,737.56,498.43,742.83,493.81z"/>
			<g>
				<path class="st12" d="M686.54,551.76c-7.66,8.19-16.28,12.45-25.87,12.78c-9.59,0.32-20.14-3.03-27.67-10.07
					c-7.47-6.98-11.41-15.24-11.83-24.8c-0.42-9.55,2.95-18.16,10.11-25.82c6.79-7.27,14.91-10.92,24.35-10.95
					c9.44-0.03,17.86,3.41,25.26,10.33c1.65,1.54,3.25,3.35,4.79,5.4L650.76,546c7.82,4.09,15.28,2.33,22.38-5.27l33.45-37.79
					l12.97,12.43L686.54,551.76z M640.66,536.93l23.62-25.28c-4.05-2.42-7.97-3.27-11.75-2.53c-3.78,0.74-7.03,2.56-9.75,5.47
					c-3.21,3.44-4.99,7.1-5.34,10.98C637.1,529.45,638.17,533.24,640.66,536.93z"/>
			</g>
			<radialGradient id="SVGID_1_" cx="436.875" cy="504.2404" r="72.5755" gradientUnits="userSpaceOnUse">
				<stop  offset="0" style="stop-color:#808285"/>
				<stop  offset="1" style="stop-color:#FFFFFF;stop-opacity:0"/>
			</radialGradient>
			<path class="st2" d="M425.04,543.79c-0.99,3.81-2.54,8.14-4.83,10.42c-0.02,0.02-0.05,0.05-0.07,0.07
				c-6.97,6.91-15.47,10.38-25.51,10.38c-10.03,0-18.51-3.47-25.43-10.38c-1.76-1.76-3.3-3.63-4.61-5.59l14.11-10.2
				c0.77,1.36,1.7,2.63,2.85,3.79c3.48,3.52,7.84,5.28,13.08,5.28s9.64-1.76,13.16-5.28c3.53-3.53,5.29-8.01,5.29-13.44
				s-1.76-9.9-5.29-13.43c-3.52-3.53-7.91-5.29-13.16-5.29c0,0,20.17-0.72,28.53,14.89C426.22,530.75,426.68,537.5,425.04,543.79z"
				/>
			<g>
				<path class="st12" d="M500.71,554.28c-6.97,6.92-15.47,10.38-25.5,10.38c-10.04,0-18.52-3.46-25.44-10.38
					c-6.92-6.92-10.38-15.4-10.38-25.44c0-10.04,3.46-18.52,10.38-25.44c6.92-6.92,15.4-10.38,25.44-10.38
					c10.04,0,18.54,3.46,25.5,10.38c6.96,6.92,10.45,15.4,10.45,25.44C511.16,538.88,507.67,547.36,500.71,554.28z M462.12,542.28
					c3.48,3.53,7.85,5.29,13.09,5.29c5.24,0,9.63-1.76,13.16-5.29c3.53-3.53,5.29-8,5.29-13.43c0-5.43-1.76-9.9-5.29-13.43
					c-3.53-3.53-7.91-5.29-13.16-5.29c-5.25,0-9.61,1.76-13.09,5.29c-3.48,3.53-5.22,8-5.22,13.43
					C456.89,534.27,458.63,538.75,462.12,542.28z"/>
			</g>
			
				<radialGradient id="SVGID_00000036230592610155997610000007787106619351635103_" cx="517.4556" cy="504.2404" r="72.5755" gradientUnits="userSpaceOnUse">
				<stop  offset="0" style="stop-color:#808285"/>
				<stop  offset="1" style="stop-color:#FFFFFF;stop-opacity:0"/>
			</radialGradient>
			<path style="fill:url(#SVGID_00000036230592610155997610000007787106619351635103_);" d="M505.62,543.79
				c-0.99,3.81-2.54,8.14-4.83,10.42c-0.02,0.02-0.05,0.05-0.07,0.07c-6.97,6.91-15.47,10.38-25.51,10.38
				c-10.03,0-18.51-3.47-25.43-10.38c-1.76-1.76-3.3-3.63-4.61-5.59l14.11-10.2c0.77,1.36,1.7,2.63,2.85,3.79
				c3.48,3.52,7.84,5.28,13.08,5.28s9.64-1.76,13.16-5.28c3.53-3.53,5.29-8.01,5.29-13.44s-1.76-9.9-5.29-13.43
				c-3.52-3.53-7.91-5.29-13.16-5.29c0,0,20.17-0.72,28.53,14.89C506.8,530.75,507.26,537.5,505.62,543.79z"/>
			
				<radialGradient id="SVGID_00000019668251522995776000000013702018986377766580_" cx="574.1455" cy="527.9077" r="54.5818" gradientUnits="userSpaceOnUse">
				<stop  offset="0" style="stop-color:#808285"/>
				<stop  offset="1" style="stop-color:#FFFFFF;stop-opacity:0"/>
			</radialGradient>
			<path style="fill:url(#SVGID_00000019668251522995776000000013702018986377766580_);" d="M551.65,538.55
				c2.4,1.13,3.6,2.6,3.6,4.41c0,3.89-3.12,5.83-9.36,5.83c-6.87,0-11.31-2.94-13.3-8.82l-15.19,8.55
				c5.06,10.76,14.56,16.14,28.49,16.14c7.78,0,14.26-1.88,19.47-5.63C572.88,547.55,551.65,538.55,551.65,538.55z"/>
			
				<radialGradient id="SVGID_00000066507560053131425550000002628060504165886107_" cx="506.5246" cy="524.2562" r="68.2666" gradientUnits="userSpaceOnUse">
				<stop  offset="0" style="stop-color:#808285"/>
				<stop  offset="1" style="stop-color:#FFFFFF;stop-opacity:0"/>
			</radialGradient>
			<path style="fill:url(#SVGID_00000066507560053131425550000002628060504165886107_);" d="M541.75,518.6
				c-2.4-1.13-3.6-2.6-3.6-4.41c0-1.72,0.75-3.07,2.24-4.07c1.49-0.99,3.37-1.49,5.63-1.49c5.06,0,8.68,2.31,10.85,6.92l14.92-8.14
				c-2.62-4.61-6.2-8.16-10.72-10.65c-4.52-2.49-9.54-3.73-15.05-3.73c-7.33,0-13.45,1.92-18.39,5.77
				C522.61,509.49,541.75,518.6,541.75,518.6z"/>
			<g>
				<path class="st12" d="M759.33,514.2c0,1.81,1.2,3.28,3.6,4.41c2.39,1.13,5.31,2.12,8.75,2.99c3.44,0.86,6.87,1.95,10.31,3.26
					c3.43,1.31,6.35,3.5,8.75,6.58c2.4,3.08,3.6,6.92,3.6,11.53c0,6.96-2.6,12.32-7.8,16.08c-5.2,3.75-11.69,5.63-19.47,5.63
					c-13.93,0-23.43-5.38-28.49-16.14l15.19-8.55c1.99,5.88,6.42,8.82,13.3,8.82c6.24,0,9.36-1.95,9.36-5.83
					c0-1.81-1.2-3.28-3.6-4.41c-2.4-1.13-5.31-2.15-8.75-3.05c-3.44-0.9-6.87-2.03-10.31-3.39c-3.44-1.36-6.36-3.5-8.75-6.44
					c-2.4-2.94-3.6-6.62-3.6-11.05c0-6.69,2.46-11.96,7.39-15.8c4.93-3.84,11.06-5.77,18.39-5.77c5.52,0,10.53,1.24,15.05,3.73
					c4.52,2.49,8.09,6.04,10.72,10.65l-14.92,8.14c-2.17-4.61-5.79-6.92-10.85-6.92c-2.26,0-4.14,0.5-5.63,1.49
					C760.08,511.12,759.33,512.48,759.33,514.2z"/>
			</g>
			
				<radialGradient id="SVGID_00000138559403344618098580000007413571954091740048_" cx="795.3238" cy="527.9077" r="54.5818" gradientUnits="userSpaceOnUse">
				<stop  offset="0" style="stop-color:#808285"/>
				<stop  offset="1" style="stop-color:#FFFFFF;stop-opacity:0"/>
			</radialGradient>
			<path style="fill:url(#SVGID_00000138559403344618098580000007413571954091740048_);" d="M772.83,538.55
				c2.4,1.13,3.6,2.6,3.6,4.41c0,3.89-3.12,5.83-9.36,5.83c-6.87,0-11.31-2.94-13.3-8.82l-15.19,8.55
				c5.06,10.76,14.56,16.14,28.49,16.14c7.78,0,14.26-1.88,19.47-5.63C794.06,547.55,772.83,538.55,772.83,538.55z"/>
			
				<radialGradient id="SVGID_00000000215741068615175240000005915723834209808514_" cx="727.7028" cy="524.2562" r="68.2666" gradientUnits="userSpaceOnUse">
				<stop  offset="0" style="stop-color:#808285"/>
				<stop  offset="1" style="stop-color:#FFFFFF;stop-opacity:0"/>
			</radialGradient>
			<path style="fill:url(#SVGID_00000000215741068615175240000005915723834209808514_);" d="M762.93,518.6
				c-2.4-1.13-3.6-2.6-3.6-4.41c0-1.72,0.75-3.07,2.24-4.07c1.49-0.99,3.37-1.49,5.63-1.49c5.06,0,8.68,2.31,10.85,6.92l14.92-8.14
				c-2.62-4.61-6.2-8.16-10.72-10.65c-4.52-2.49-9.54-3.73-15.05-3.73c-7.33,0-13.45,1.92-18.39,5.77
				C743.78,509.49,762.93,518.6,762.93,518.6z"/>
			
				<radialGradient id="SVGID_00000057848525564238697690000006048850814135501224_" cx="693.9699" cy="520.7399" r="53.4608" gradientUnits="userSpaceOnUse">
				<stop  offset="0" style="stop-color:#808285"/>
				<stop  offset="1" style="stop-color:#FFFFFF;stop-opacity:0"/>
			</radialGradient>
			<path style="fill:url(#SVGID_00000057848525564238697690000006048850814135501224_);" d="M698.13,538.98v23.78h17.6v-35.84
				c0-4.85,1.14-8.53,3.39-11.05L698.13,538.98z"/>
			
				<radialGradient id="SVGID_00000072979901612851763560000002449978426171212200_" cx="633.5167" cy="554.5504" r="52.6341" gradientUnits="userSpaceOnUse">
				<stop  offset="0" style="stop-color:#808285"/>
				<stop  offset="1" style="stop-color:#FFFFFF;stop-opacity:0"/>
			</radialGradient>
			<path style="fill:url(#SVGID_00000072979901612851763560000002449978426171212200_);" d="M640.66,536.93c0,0,3.74,6.33,10.1,9.06
				l34.92-37.37l-21.4,3.03L640.66,536.93z"/>
			
				<radialGradient id="SVGID_00000029766042447410269000000009392652079463538367_" cx="579.8257" cy="489.9949" r="70.8854" gradientUnits="userSpaceOnUse">
				<stop  offset="0" style="stop-color:#808285"/>
				<stop  offset="1" style="stop-color:#FFFFFF;stop-opacity:0"/>
			</radialGradient>
			<path style="fill:url(#SVGID_00000029766042447410269000000009392652079463538367_);" d="M615.09,546.89v15.87
				c-12.03,1.35-20.51,0.22-25.44-3.4c-4.93-3.62-7.39-10.08-7.39-19.4v-13.35c0-8.22,6.66-14.86,14.86-14.86h2.64v28.21
				c0,2.36,0.58,4.08,1.75,5.16c1.18,1.08,2.9,1.69,5.16,1.83C608.93,547.09,611.74,547.08,615.09,546.89z"/>
		</g>
		<g>
			<g>
				<path class="st1" d="M371.9,464.65h16.74c-0.61,3.56-2.32,6.46-5.15,8.7c-2.82,2.24-6.51,3.35-11.07,3.35
					c-5.34,0-9.7-1.69-13.06-5.08c-3.37-3.39-5.05-7.6-5.05-12.64c0-5.04,1.67-9.26,5.02-12.67c3.34-3.41,7.62-5.11,12.83-5.11
					c3.17,0,6.07,0.75,8.7,2.25c2.63,1.5,4.59,3.49,5.9,5.96l5.21-3.06c-1.91-3.3-4.63-5.96-8.14-7.98
					c-3.52-2.02-7.38-3.03-11.6-3.03c-6.86,0-12.56,2.29-17.1,6.87c-4.54,4.58-6.81,10.17-6.81,16.77c0,6.6,2.27,12.19,6.81,16.77
					c4.54,4.58,10.28,6.87,17.23,6.87c6.73,0,12.14-1.96,16.22-5.9c4.08-3.93,6.12-8.87,6.12-14.82v-2.74h-22.8V464.65z"/>
				<path class="st1" d="M407.14,454.68v-5.47h-5.67v32.57h5.67v-17.26c0-3.56,1-6.14,3-7.75c2-1.61,4.39-2.35,7.17-2.22v-5.93
					C412.4,448.63,409.01,450.65,407.14,454.68z"/>
				<path class="st1" d="M436.39,448.36c-4.78,0-8.83,1.65-12.15,4.95c-3.32,3.3-4.98,7.36-4.98,12.18s1.66,8.88,4.98,12.18
					c3.32,3.3,7.37,4.95,12.15,4.95c4.78,0,8.84-1.65,12.18-4.95c3.34-3.3,5.02-7.36,5.02-12.18s-1.67-8.88-5.02-12.18
					C445.23,450.02,441.17,448.36,436.39,448.36z M444.6,473.77c-2.21,2.21-4.95,3.32-8.21,3.32c-3.21,0-5.93-1.11-8.14-3.32
					c-2.22-2.22-3.32-4.97-3.32-8.27c0-3.3,1.11-6.06,3.32-8.27c2.22-2.22,4.93-3.32,8.14-3.32c3.26,0,5.99,1.11,8.21,3.32
					c2.22,2.21,3.32,4.97,3.32,8.27C447.92,468.8,446.82,471.56,444.6,473.77z"/>
				<polygon class="st1" points="490.3,473.97 482.63,449.21 477.04,449.21 469.36,473.97 462.2,449.21 456.26,449.21 
					465.85,481.78 471.91,481.78 479.63,457.36 487.4,481.78 493.2,481.78 502.69,449.21 497.37,449.21 				"/>
				<path class="st1" d="M513.65,435.34h-5.67v37c0,4.04,1.15,6.79,3.45,8.24c2.3,1.45,5.93,1.86,10.88,1.21v-5.08
					c-1.91,0.09-3.52,0.12-4.82,0.1c-1.3-0.02-2.27-0.37-2.9-1.04c-0.63-0.67-0.94-1.81-0.94-3.42v-17.65h8.66v-5.47h-8.66V435.34z"
					/>
				<path class="st1" d="M554.43,451.98c-2.3-2.41-5.36-3.62-9.19-3.62c-4.73,0-8.25,1.85-10.55,5.54v-18.57h-5.67v46.45h5.67
					v-17.26c0-3.65,0.87-6.35,2.61-8.11c1.74-1.76,4.02-2.64,6.84-2.64c2.52,0,4.49,0.73,5.93,2.18c1.43,1.46,2.15,3.51,2.15,6.16
					v19.67h5.67v-20C557.88,457.66,556.73,454.39,554.43,451.98z"/>
			</g>
		</g>
		<g>
			<path class="st1" d="M302.82,435.34h-97.15v106.31l51.66-48.45L226.05,505v-49.28h76.77c6.95,0,12.6,5.65,12.6,12.6
				c0,2.88-0.6,5.23-2.62,7.66l-23.6,25.31h13.63c18.18,0,32.98-14.79,32.98-32.98S321,435.34,302.82,435.34z"/>
			
				<radialGradient id="SVGID_00000137842261887851325230000013914339506865797266_" cx="258.3556" cy="500.2744" r="50.8701" gradientUnits="userSpaceOnUse">
				<stop  offset="0" style="stop-color:#A70000"/>
				<stop  offset="1" style="stop-color:#EF9018;stop-opacity:0"/>
			</radialGradient>
			<polygon style="fill:url(#SVGID_00000137842261887851325230000013914339506865797266_);" points="226.05,505 226.05,463.94 
				205.67,459.62 205.67,541.65 257.33,493.2 			"/>
			<path class="st1" d="M308.63,480.97l-19.43,20.32h17.25c11.85,0,21.5,9.64,21.5,21.5s-9.64,21.5-21.5,21.5h-30.67v20.38h30.67
				c23.09,0,41.88-18.79,41.88-41.88C348.32,500.43,330.7,482.11,308.63,480.97z"/>
			<path class="st1" d="M296.55,466.9c-3.06-0.43-6.13-0.54-9.22-0.42c-9.02,0.34-17.53,2.45-25.43,6.67
				c-2.26,1.21-4.49,2.47-6.38,4.2c-0.1,0.09-0.33,0.1-0.48,0.06c-1.61-0.38-3.23-0.68-4.89-0.69c-1.74-0.02-3.4,0.24-4.82,1.29
				c-0.66,0.49-1.31,0.98-1.92,1.53c-3.09,2.82-5.32,6.2-7.06,9.91c-0.04,0.08-0.06,0.17-0.1,0.29c3.89,0.17,7.74,0.34,11.62,0.51
				c-0.23,1.19-0.46,2.32-0.66,3.45c-0.03,0.15-0.01,0.36,0.08,0.48c1.74,2.46,3.49,4.92,5.24,7.37c0.09,0.12,0.28,0.22,0.44,0.26
				c0.8,0.16,1.61,0.3,2.41,0.45c0.38,0.07,0.76,0.14,1.19,0.22c-1.25,3.55-2.49,7.06-3.74,10.61c0.19,0,0.32,0.01,0.45,0
				c0.88-0.07,1.76-0.12,2.64-0.22c3.86-0.47,7.57-1.4,10.98-3.27c1.53-0.84,2.62-2,3.33-3.54c0.79-1.71,1.15-3.52,1.41-5.36
				c0.02-0.14,0.11-0.32,0.23-0.37c1.8-0.79,3.38-1.91,4.93-3.06c5.32-3.93,9.7-8.68,13.22-14.16c2.88-4.49,5.1-9.26,6.55-14.35
				c0.16-0.57,0.3-1.15,0.45-1.76C296.82,466.95,296.69,466.92,296.55,466.9z M280.03,481.98c-0.51,2.44-2.96,3.95-5.55,3.43
				c-2.41-0.48-4-2.87-3.49-5.24c0.51-2.38,2.94-3.92,5.41-3.43C278.93,477.24,280.54,479.55,280.03,481.98z"/>
			<g>
				<g>
					<polygon class="st1" points="264.46,564.66 283.85,564.66 283.85,506.22 264.46,523.57 					"/>
					<polygon class="st3" points="237.49,546.49 237.49,564.66 256.88,564.66 256.88,529.14 					"/>
					<polygon class="st4" points="214.4,564.66 229.91,564.66 229.91,550.78 					"/>
				</g>
			</g>
			
				<radialGradient id="SVGID_00000165957043851016266410000007165446477179966648_" cx="281.2115" cy="562.8452" r="62.6449" gradientUnits="userSpaceOnUse">
				<stop  offset="0" style="stop-color:#A70000"/>
				<stop  offset="1" style="stop-color:#EF9018;stop-opacity:0"/>
			</radialGradient>
			<path style="fill:url(#SVGID_00000165957043851016266410000007165446477179966648_);" d="M264.46,523.57v40.1
				c0-20.57,19.39-19.39,19.39-19.39v-38.06L264.46,523.57z"/>
			
				<radialGradient id="SVGID_00000134229129045576869000000005113990643080405125_" cx="343.0621" cy="431.2097" r="85.8913" gradientUnits="userSpaceOnUse">
				<stop  offset="0" style="stop-color:#A70000"/>
				<stop  offset="1" style="stop-color:#EF9018;stop-opacity:0"/>
			</radialGradient>
			<path style="fill:url(#SVGID_00000134229129045576869000000005113990643080405125_);" d="M313.16,475.53
				c1.74-2.29,2.26-4.54,2.26-7.25c-0.01-6.94-5.66-12.56-12.6-12.56h-76.77v25.26h-20.39v-45.63h93.63c3.58,0,7.16,0.77,10.31,2.48
				C325.28,446.35,319.16,468.17,313.16,475.53z"/>
		</g>
		
			<radialGradient id="SVGID_00000067921319765884110970000006350867774723491459_" cx="348.6972" cy="488.2818" r="75.8784" gradientUnits="userSpaceOnUse">
			<stop  offset="0" style="stop-color:#A70000"/>
			<stop  offset="1" style="stop-color:#EF9018;stop-opacity:0"/>
		</radialGradient>
		<path style="fill:url(#SVGID_00000067921319765884110970000006350867774723491459_);" d="M306.44,501.29
			c11.85,0,21.5,9.64,21.5,21.5c0,11.85-9.64,21.5-21.5,21.5h-30.67v20.38h30.67c19.5,0,35.92-13.39,40.56-31.46
			C350.05,499.67,306.44,501.29,306.44,501.29z"/>
	</g>
	<g>
		<path class="st12" d="M525.97,594.27c-2.48,0-4.53-0.82-6.15-2.46s-2.42-3.65-2.42-6.04c0-2.39,0.81-4.4,2.42-6.04
			c1.62-1.64,3.67-2.46,6.15-2.46c1.5,0,2.88,0.36,4.13,1.08c1.26,0.72,2.24,1.69,2.94,2.91l-1.9,1.1c-0.47-0.91-1.17-1.63-2.1-2.17
			c-0.93-0.54-1.96-0.81-3.08-0.81c-1.89,0-3.43,0.61-4.63,1.83c-1.19,1.22-1.79,2.74-1.79,4.57c0,1.81,0.6,3.33,1.79,4.54
			c1.19,1.22,2.74,1.83,4.63,1.83c1.12,0,2.15-0.27,3.08-0.81c0.93-0.54,1.63-1.25,2.1-2.14l1.9,1.08
			c-0.69,1.22-1.66,2.19-2.93,2.92C528.85,593.91,527.47,594.27,525.97,594.27z"/>
		<path class="st12" d="M537.4,584.22c0.67-1.45,1.89-2.18,3.65-2.18v2.13c-1-0.05-1.86,0.22-2.58,0.8
			c-0.72,0.58-1.08,1.51-1.08,2.79v6.21h-2.04v-11.71h2.04V584.22z"/>
		<path class="st12" d="M543.85,589.05c0.2,1.05,0.68,1.86,1.44,2.44c0.76,0.58,1.69,0.87,2.8,0.87c1.55,0,2.67-0.57,3.37-1.71
			l1.73,0.98c-1.14,1.77-2.86,2.65-5.15,2.65c-1.86,0-3.37-0.58-4.53-1.75c-1.16-1.16-1.74-2.64-1.74-4.42
			c0-1.76,0.57-3.23,1.71-4.4c1.14-1.17,2.62-1.76,4.43-1.76c1.72,0,3.12,0.61,4.2,1.82c1.09,1.21,1.63,2.67,1.63,4.37
			c0,0.3-0.02,0.6-0.07,0.91H543.85z M547.9,583.87c-1.09,0-2,0.31-2.72,0.92c-0.72,0.62-1.16,1.44-1.34,2.47h7.82
			c-0.17-1.11-0.61-1.95-1.31-2.53S548.84,583.87,547.9,583.87z"/>
		<path class="st12" d="M561.56,594.27c-1.77,0-3.23-0.59-4.4-1.77c-1.17-1.18-1.76-2.64-1.76-4.39s0.59-3.21,1.76-4.39
			c1.17-1.18,2.64-1.77,4.4-1.77c1.16,0,2.19,0.28,3.12,0.83c0.92,0.55,1.61,1.3,2.06,2.24l-1.71,0.98c-0.3-0.62-0.75-1.12-1.37-1.5
			c-0.62-0.38-1.32-0.56-2.1-0.56c-1.17,0-2.15,0.4-2.94,1.19c-0.79,0.8-1.18,1.79-1.18,2.98c0,1.17,0.39,2.16,1.18,2.95
			c0.79,0.8,1.77,1.19,2.94,1.19c0.78,0,1.48-0.18,2.11-0.55c0.62-0.37,1.1-0.86,1.43-1.49l1.73,1.01c-0.5,0.92-1.22,1.66-2.16,2.21
			C563.73,593.99,562.7,594.27,561.56,594.27z"/>
		<path class="st12" d="M570.11,589.05c0.2,1.05,0.68,1.86,1.44,2.44c0.76,0.58,1.69,0.87,2.8,0.87c1.55,0,2.67-0.57,3.37-1.71
			l1.73,0.98c-1.14,1.77-2.86,2.65-5.15,2.65c-1.86,0-3.37-0.58-4.53-1.75c-1.16-1.16-1.75-2.64-1.75-4.42
			c0-1.76,0.57-3.23,1.71-4.4c1.14-1.17,2.62-1.76,4.43-1.76c1.72,0,3.12,0.61,4.2,1.82c1.09,1.21,1.63,2.67,1.63,4.37
			c0,0.3-0.02,0.6-0.07,0.91H570.11z M574.16,583.87c-1.09,0-2,0.31-2.72,0.92c-0.72,0.62-1.16,1.44-1.34,2.47h7.82
			c-0.17-1.11-0.61-1.95-1.31-2.53S575.1,583.87,574.16,583.87z"/>
		<path class="st12" d="M588.4,598.65V577.1h2.04v21.55H588.4z"/>
		<path class="st12" d="M599.81,577.57h2.18v16.4h-2.18V577.57z"/>
		<path class="st12" d="M617.94,581.95c1.31,0,2.37,0.43,3.19,1.28c0.81,0.85,1.22,2,1.22,3.45v7.29h-2.04v-7.22
			c0-0.91-0.23-1.61-0.7-2.11c-0.47-0.5-1.09-0.75-1.87-0.75c-0.88,0-1.57,0.29-2.1,0.88c-0.52,0.59-0.78,1.48-0.78,2.68v6.51h-2.04
			v-7.22c0-0.91-0.22-1.61-0.67-2.11c-0.45-0.5-1.05-0.75-1.82-0.75c-0.86,0-1.57,0.3-2.14,0.89c-0.57,0.59-0.85,1.48-0.85,2.67
			v6.51h-2.04v-11.71h2.04v1.57c0.8-1.25,1.96-1.87,3.49-1.87c1.58,0,2.73,0.66,3.44,1.99C615.07,582.61,616.3,581.95,617.94,581.95
			z"/>
		<path class="st12" d="M631.64,581.95c1.64,0,3.04,0.6,4.19,1.79c1.16,1.2,1.73,2.65,1.73,4.37s-0.58,3.17-1.73,4.37
			c-1.16,1.19-2.55,1.79-4.19,1.79c-1.94,0-3.41-0.77-4.43-2.32v6.7h-2.04v-16.4h2.04v2.01
			C628.23,582.72,629.71,581.95,631.64,581.95z M631.39,592.3c1.17,0,2.16-0.4,2.95-1.21c0.8-0.8,1.2-1.8,1.2-2.99
			s-0.4-2.18-1.2-2.99c-0.8-0.8-1.78-1.21-2.95-1.21c-1.19,0-2.18,0.4-2.98,1.21c-0.8,0.8-1.19,1.8-1.19,2.99s0.4,2.18,1.19,2.99
			C629.21,591.9,630.2,592.3,631.39,592.3z"/>
		<path class="st12" d="M648.09,582.25h2.04v11.71h-2.04v-1.69c-0.83,1.33-2.09,1.99-3.8,1.99c-1.37,0-2.47-0.43-3.3-1.3
			c-0.83-0.87-1.24-2.04-1.24-3.53v-7.19h2.04v7.07c0,0.95,0.26,1.69,0.77,2.21c0.52,0.52,1.23,0.78,2.13,0.78
			c1.01,0,1.84-0.32,2.46-0.95c0.62-0.63,0.94-1.6,0.94-2.92V582.25z"/>
		<path class="st12" d="M653.22,593.97v-17.1h2.04v17.1H653.22z"/>
		<path class="st12" d="M660.11,585.38c0,0.44,0.23,0.8,0.69,1.07c0.46,0.27,1.01,0.49,1.64,0.68c0.64,0.19,1.28,0.38,1.92,0.56
			c0.64,0.19,1.19,0.54,1.63,1.06c0.45,0.52,0.67,1.19,0.67,2c0,1.06-0.41,1.91-1.23,2.55c-0.82,0.64-1.87,0.96-3.15,0.96
			c-1.14,0-2.12-0.25-2.93-0.75c-0.81-0.5-1.39-1.16-1.73-1.99l1.76-1.01c0.19,0.56,0.54,1.01,1.05,1.33
			c0.52,0.33,1.13,0.49,1.85,0.49c0.67,0,1.23-0.13,1.66-0.39c0.44-0.26,0.66-0.66,0.66-1.2c0-0.45-0.23-0.81-0.68-1.09
			c-0.45-0.27-1-0.5-1.63-0.7c-0.64-0.19-1.28-0.38-1.92-0.58c-0.64-0.19-1.19-0.54-1.65-1.04c-0.45-0.5-0.68-1.14-0.68-1.92
			c0-1.01,0.39-1.85,1.18-2.51c0.79-0.66,1.78-0.98,2.96-0.98c0.95,0,1.8,0.21,2.54,0.64c0.74,0.43,1.3,1.03,1.68,1.79l-1.71,0.96
			c-0.42-1-1.26-1.5-2.51-1.5c-0.58,0-1.07,0.13-1.48,0.4C660.31,584.52,660.11,584.89,660.11,585.38z"/>
		<path class="st12" d="M678.45,582.25h2.04v11.71h-2.04v-2.01c-1.02,1.55-2.49,2.32-4.43,2.32c-1.64,0-3.04-0.6-4.19-1.79
			c-1.16-1.2-1.73-2.65-1.73-4.37s0.58-3.17,1.73-4.37c1.16-1.2,2.55-1.79,4.19-1.79c1.94,0,3.41,0.77,4.43,2.32V582.25z
			 M674.28,592.3c1.19,0,2.18-0.4,2.98-1.21c0.8-0.8,1.19-1.8,1.19-2.99s-0.4-2.18-1.19-2.99c-0.8-0.8-1.79-1.21-2.98-1.21
			c-1.17,0-2.16,0.4-2.95,1.21c-0.8,0.8-1.2,1.8-1.2,2.99s0.4,2.18,1.2,2.99C672.12,591.9,673.11,592.3,674.28,592.3z"/>
		<path class="st12" d="M689.65,598.65V577.1h2.04v21.55H689.65z"/>
		<path class="st12" d="M703.23,591.91h7.61v2.06h-9.79v-16.4h9.67v2.06h-7.5v5.04h6.91v2.04h-6.91V591.91z"/>
		<path class="st12" d="M723.43,593.97h-2.39l-3.29-4.42l-3.29,4.42h-2.39l4.49-6.03l-4.23-5.68h2.41l3.02,4.07l3.03-4.07h2.39
			l-4.22,5.67L723.43,593.97z"/>
		<path class="st12" d="M731.79,581.95c1.64,0,3.04,0.6,4.19,1.79c1.16,1.2,1.73,2.65,1.73,4.37s-0.58,3.17-1.73,4.37
			c-1.16,1.19-2.55,1.79-4.19,1.79c-1.94,0-3.41-0.77-4.43-2.32v6.7h-2.04v-16.4h2.04v2.01
			C728.38,582.72,729.85,581.95,731.79,581.95z M731.53,592.3c1.17,0,2.16-0.4,2.95-1.21c0.8-0.8,1.2-1.8,1.2-2.99
			s-0.4-2.18-1.2-2.99c-0.8-0.8-1.78-1.21-2.95-1.21c-1.19,0-2.18,0.4-2.98,1.21c-0.8,0.8-1.19,1.8-1.19,2.99s0.4,2.18,1.19,2.99
			C729.35,591.9,730.34,592.3,731.53,592.3z"/>
		<path class="st12" d="M749.85,582.25h2.04v11.71h-2.04v-2.01c-1.01,1.55-2.49,2.32-4.43,2.32c-1.64,0-3.04-0.6-4.19-1.79
			c-1.16-1.2-1.73-2.65-1.73-4.37s0.58-3.17,1.73-4.37c1.16-1.2,2.55-1.79,4.19-1.79c1.94,0,3.41,0.77,4.43,2.32V582.25z
			 M745.68,592.3c1.19,0,2.18-0.4,2.98-1.21c0.8-0.8,1.19-1.8,1.19-2.99s-0.4-2.18-1.19-2.99c-0.8-0.8-1.79-1.21-2.98-1.21
			c-1.17,0-2.16,0.4-2.95,1.21c-0.8,0.8-1.2,1.8-1.2,2.99s0.4,2.18,1.2,2.99C743.52,591.9,744.51,592.3,745.68,592.3z"/>
		<path class="st12" d="M760.81,581.95c1.37,0,2.48,0.43,3.3,1.3c0.83,0.87,1.24,2.04,1.24,3.53v7.19h-2.04v-7.07
			c0-0.95-0.26-1.69-0.77-2.21s-1.23-0.78-2.13-0.78c-1.02,0-1.84,0.32-2.46,0.95c-0.62,0.63-0.94,1.6-0.94,2.92v6.21h-2.04v-11.71
			h2.04v1.69C757.84,582.61,759.11,581.95,760.81,581.95z"/>
		<path class="st12" d="M777.89,577.57h2.04v16.4h-2.04v-2.01c-1.02,1.55-2.49,2.32-4.43,2.32c-1.64,0-3.04-0.6-4.19-1.79
			c-1.16-1.2-1.73-2.65-1.73-4.37s0.58-3.17,1.73-4.37c1.16-1.2,2.55-1.79,4.19-1.79c1.94,0,3.41,0.77,4.43,2.32V577.57z
			 M773.72,592.3c1.19,0,2.18-0.4,2.98-1.21c0.8-0.8,1.19-1.8,1.19-2.99s-0.4-2.18-1.19-2.99c-0.8-0.8-1.79-1.21-2.98-1.21
			c-1.17,0-2.16,0.4-2.95,1.21c-0.8,0.8-1.19,1.8-1.19,2.99s0.4,2.18,1.19,2.99C771.56,591.9,772.55,592.3,773.72,592.3z"/>
		<path class="st12" d="M784.45,589.05c0.2,1.05,0.68,1.86,1.44,2.44c0.76,0.58,1.69,0.87,2.8,0.87c1.55,0,2.67-0.57,3.37-1.71
			l1.73,0.98c-1.14,1.77-2.86,2.65-5.15,2.65c-1.86,0-3.37-0.58-4.53-1.75c-1.16-1.16-1.75-2.64-1.75-4.42
			c0-1.76,0.57-3.23,1.71-4.4c1.14-1.17,2.62-1.76,4.43-1.76c1.72,0,3.12,0.61,4.2,1.82c1.09,1.21,1.63,2.67,1.63,4.37
			c0,0.3-0.02,0.6-0.07,0.91H784.45z M788.5,583.87c-1.09,0-2,0.31-2.72,0.92c-0.72,0.62-1.16,1.44-1.34,2.47h7.82
			c-0.17-1.11-0.61-1.95-1.31-2.53S789.44,583.87,788.5,583.87z"/>
	</g>
</g>
</svg>
